<svg width="441" height="153" viewBox="0 0 441 153" fill="none" xmlns="http://www.w3.org/2000/svg">
<path d="M18.1839 121C17.0069 121 16.0261 120.608 15.2414 119.823C13.8682 118.646 13.1816 117.42 13.1816 116.145V45.6713C13.1816 43.8077 14.1625 42.3364 16.1241 41.2575C16.7126 41.0613 17.3011 40.8651 17.8897 40.669H59.8207C61.292 40.669 62.3709 41.1103 63.0575 41.9931C63.7441 42.8759 64.0874 43.8567 64.0874 44.9356C64.0874 45.9165 63.695 46.8483 62.9103 47.731C62.1257 48.6138 61.0958 49.0552 59.8207 49.0552H22.892V75.6851H58.0552C59.5264 75.6851 60.6054 76.1264 61.292 77.0092C61.9785 77.7939 62.3218 78.7257 62.3218 79.8046C62.3218 80.7854 61.9295 81.6682 61.1448 82.4529C60.3602 83.2375 59.3303 83.6299 58.0552 83.6299H22.892V112.761H61.4391C62.8123 112.761 63.8421 113.202 64.5287 114.085C65.2153 114.968 65.5586 115.949 65.5586 117.028C65.5586 118.107 65.1663 119.038 64.3816 119.823C63.695 120.608 62.7142 121 61.4391 121H18.1839ZM77.3773 93.046C77.3773 84.905 79.6823 78.1372 84.2922 72.7425C89.2945 66.9556 95.8171 64.0621 103.86 64.0621C110.726 64.0621 115.973 65.4843 119.603 68.3287C120.682 69.1134 121.221 70.0452 121.221 71.1241C121.221 72.2031 120.927 73.0858 120.338 73.7724C119.75 74.3609 119.063 74.6552 118.278 74.6552C117.494 74.6552 116.905 74.508 116.513 74.2138C112.786 72.0559 108.862 71.0261 104.743 71.1241C99.3482 71.1241 95.1306 73.1349 92.0899 77.1563C88.657 81.2759 86.9405 86.5724 86.9405 93.046C86.9405 99.0291 88.1666 104.08 90.6187 108.2C93.5612 112.908 98.2693 115.262 104.743 115.262C108.274 115.262 112.59 114.036 117.69 111.584C119.063 110.799 120.24 110.995 121.221 112.172C121.809 112.761 122.104 113.595 122.104 114.674C122.104 115.654 121.466 116.684 120.191 117.763C118.916 118.744 117.396 119.529 115.63 120.117C111.314 121.589 107.146 122.275 103.124 122.177C99.103 122.177 95.4739 121.441 92.2371 119.97C89.0003 118.499 86.303 116.341 84.1451 113.497C79.6332 108.102 77.3773 101.285 77.3773 93.046ZM131.605 93.1931C131.605 89.6621 132.145 86.131 133.224 82.6C134.401 79.069 136.166 75.8812 138.52 73.0368C143.424 67.0536 150.388 64.0621 159.412 64.0621C168.436 64.0621 175.4 67.0536 180.304 73.0368C184.914 78.7257 187.219 85.3954 187.219 93.046C187.219 100.795 184.914 107.464 180.304 113.055C175.4 119.136 168.436 122.177 159.412 122.177C150.388 122.177 143.424 119.136 138.52 113.055C133.91 107.562 131.605 100.942 131.605 93.1931ZM141.168 93.1931C141.168 95.5471 141.463 98.0483 142.051 100.697C142.738 103.345 143.915 105.797 145.582 108.053C148.917 112.859 153.527 115.262 159.412 115.262C165.591 115.262 170.201 112.859 173.242 108.053C176.086 103.541 177.509 98.5387 177.509 93.046C177.509 87.3571 176.086 82.4529 173.242 78.3333C170.103 73.4291 165.493 70.977 159.412 70.977C153.527 70.977 148.917 73.4291 145.582 78.3333C142.64 82.3548 141.168 87.308 141.168 93.1931ZM203.373 45.5241C203.373 43.4644 204.354 41.9931 206.316 41.1103C206.904 41.0123 207.738 40.9142 208.817 40.8161C209.896 40.718 210.876 41.0613 211.759 41.846C212.74 42.6307 213.23 43.8567 213.23 45.5241V116.145C213.23 118.499 212.201 120.019 210.141 120.706C209.552 120.902 208.768 121 207.787 121C206.806 121 205.825 120.608 204.844 119.823C203.863 119.038 203.373 117.812 203.373 116.145V45.5241ZM300.204 114.821C300.302 115.409 300.351 115.998 300.351 116.586C300.351 117.175 300.204 117.763 299.909 118.352C299.615 118.94 299.223 119.382 298.732 119.676C297.752 120.559 296.673 121 295.496 121C293.142 121 291.572 119.97 290.788 117.91L283.578 100.108H243.854L236.792 117.91C236.106 119.97 234.732 121 232.673 121C230.613 121 229.044 120.117 227.965 118.352C227.67 117.763 227.523 117.224 227.523 116.733C227.523 116.243 227.67 115.605 227.965 114.821L254.595 49.4966C256.556 44.5923 258.812 41.7969 261.362 41.1103C262.049 41.0123 262.932 40.8651 264.011 40.669C265.972 40.669 267.444 41.1103 268.424 41.9931C269.994 43.1701 271.563 45.6713 273.132 49.4966L300.204 114.821ZM246.65 92.3103H280.93L263.716 49.0552L246.65 92.3103Z" fill="#394240"/>
<g clip-path="url(#clip0_10_12)">
<path d="M330.602 137.54C330.436 138.585 329.452 139.301 328.404 139.137C327.354 138.967 326.639 137.986 326.805 136.937L329.741 117.91C330.65 119.113 331.892 120.027 333.324 120.529L330.602 137.54Z" fill="#506C7F"/>
<path d="M415.55 62.4166C418.204 87.7119 399.782 110.453 374.486 113.107L336.256 117.118C334.145 117.34 332.253 115.807 332.031 113.696L331.831 111.785L327.619 71.6424C325.14 48.0177 342.123 27.1574 368.918 20.9118C378.047 18.7868 388.59 17.0099 397.846 16.0388C405.583 15.2269 412.332 14.9866 417.557 15.3331C412.454 32.912 414.235 49.8826 415.55 62.4166Z" fill="#B4CCB9"/>
<path d="M373.298 29.4136C372.803 28.4741 371.641 28.113 370.707 28.609C369.767 29.1 369.404 30.2609 369.893 31.201C369.939 31.287 374.374 40.015 372.109 52.9149C372.109 52.9149 372.109 52.9284 372.11 52.9361C370.008 55.2882 367.865 57.7704 365.666 60.4863C363.345 63.3524 361.249 66.1117 359.299 68.7842C359.365 51.0304 355.113 38.0548 354.907 37.4386C354.57 36.4324 353.481 35.8953 352.474 36.2251C351.468 36.5626 350.925 37.6516 351.261 38.658C351.314 38.8186 356.444 54.4812 355.272 74.4981C351.493 80.103 348.562 85.1357 346.284 89.4737C346.055 74.2303 342.216 62.5641 342.022 61.9816C341.684 60.9753 340.601 60.4183 339.589 60.77C338.582 61.1056 338.04 62.1945 338.375 63.201C338.431 63.3632 343.733 79.5489 342.137 98.1667C339.992 103.2 339.203 106.182 339.125 106.486C338.866 107.514 339.485 108.558 340.514 108.819C340.74 108.877 340.968 108.893 341.188 108.87C341.964 108.789 342.644 108.234 342.85 107.434C342.868 107.366 343.545 104.845 345.373 100.467C364.779 93.1627 383.605 96.5543 383.796 96.5884C383.983 96.6228 384.169 96.6303 384.351 96.6113C385.175 96.5248 385.878 95.91 386.039 95.0543C386.235 94.0133 385.55 93.0088 384.507 92.8109C383.738 92.6636 366.605 89.5659 347.532 95.6546C349.774 90.9435 352.996 84.9971 357.499 78.1432C357.597 78.1213 357.696 78.1071 357.789 78.0722C377.462 70.4248 398.627 73.7314 398.839 73.7651C399.012 73.7915 399.182 73.7967 399.349 73.7793C400.19 73.6911 400.904 73.0519 401.046 72.177C401.216 71.129 400.505 70.1426 399.457 69.9704C398.622 69.8339 380.201 66.9699 361.088 72.883C363.346 69.7008 365.844 66.3756 368.653 62.9056C371.065 59.9276 373.421 57.2009 375.718 54.666C387.72 50.2198 400.308 52.3101 400.434 52.3336C400.613 52.3631 400.792 52.3695 400.966 52.3513C401.799 52.2638 402.506 51.635 402.657 50.7688C402.839 49.7254 402.143 48.7297 401.096 48.5459C400.626 48.4657 391.455 46.9155 380.92 49.1573C395.819 34.0254 406.72 28.4889 406.854 28.4226C407.806 27.9536 408.195 26.7997 407.726 25.8497C407.257 24.8959 406.106 24.5142 405.155 24.9754C404.556 25.2702 392.664 31.272 376.532 48.1373C377.176 36.9419 373.479 29.756 373.298 29.4136Z" fill="#394240"/>
<path d="M421.71 12.5841C421.396 12.0972 420.879 11.7784 420.307 11.7167C414.48 11.0681 406.786 11.2375 397.447 12.2174C388.038 13.2046 377.324 15.011 368.048 17.1708C339.305 23.8642 321.109 46.4308 323.796 72.0435L327.542 107.747L323.01 136.336C322.513 139.476 324.661 142.432 327.803 142.933C330.944 143.427 333.901 141.279 334.399 138.142L337.135 120.891L374.887 116.93C402.293 114.055 422.248 89.4212 419.373 62.0154C418.037 49.2789 416.206 31.8361 421.922 14.2181C422.1 13.6698 422.022 13.0674 421.71 12.5841ZM330.602 137.54C330.436 138.585 329.452 139.301 328.404 139.137C327.354 138.967 326.639 137.986 326.805 136.937L329.741 117.91C330.65 119.113 331.892 120.027 333.324 120.529L330.602 137.54ZM415.55 62.4166C418.204 87.7119 399.782 110.453 374.486 113.107L336.256 117.118C334.145 117.34 332.253 115.807 332.031 113.696L331.831 111.785L327.619 71.6424C325.14 48.0177 342.123 27.1574 368.918 20.9118C378.047 18.7868 388.59 17.0099 397.846 16.0388C405.584 15.2269 412.332 14.9866 417.557 15.3331C412.454 32.912 414.235 49.8826 415.55 62.4166Z" fill="#394240"/>
</g>
<defs>
<clipPath id="clip0_10_12">
<rect width="123.01" height="123.01" fill="white" transform="translate(305 21.8359) rotate(-5.98966)"/>
</clipPath>
</defs>
</svg>
